<svg width="310" height="324" viewBox="0 0 310 324" fill="none" xmlns="http://www.w3.org/2000/svg">
<path fill-rule="evenodd" clip-rule="evenodd" d="M254.649 43.4308L208.016 16.5073C175.219 -2.42783 134.812 -2.42783 102.016 16.5072L55.383 43.4308C22.5865 62.3658 2.38306 97.3593 2.38306 135.229V189.076C2.38306 226.947 22.5865 261.94 55.3831 280.875L102.016 307.799C134.812 326.734 175.219 326.734 208.016 307.799L254.649 280.875C287.445 261.94 307.649 226.947 307.649 189.076V135.229C307.649 97.3593 287.445 62.3658 254.649 43.4308ZM209.016 14.7752C175.601 -4.51715 134.431 -4.51715 101.016 14.7752L54.383 41.6987C20.9677 60.9911 0.383057 96.6448 0.383057 135.229V189.076C0.383057 227.661 20.9677 263.315 54.3831 282.607L101.016 309.531C134.431 328.823 175.601 328.823 209.016 309.531L255.649 282.607C289.064 263.315 309.649 227.661 309.649 189.076V135.229C309.649 96.6448 289.064 60.9911 255.649 41.6987L209.016 14.7752Z" fill="#C88319"/>
<path d="M85.197 41.2228C128.401 16.2789 181.631 16.2789 224.835 41.2228C268.039 66.1668 294.654 112.265 294.654 162.153C294.654 212.041 268.039 258.139 224.835 283.083C181.631 308.027 128.401 308.027 85.197 283.083C41.9928 258.139 15.3779 212.041 15.3779 162.153C15.3779 112.265 41.9928 66.1668 85.197 41.2228Z" fill="#F9FAFB"/>
<g opacity="0.3">
<path fill-rule="evenodd" clip-rule="evenodd" d="M137.016 158.369C137.016 148.428 145.075 140.369 155.016 140.369C164.957 140.369 173.016 148.428 173.016 158.369V180.869C173.016 190.811 164.957 198.869 155.016 198.869C145.075 198.869 137.016 190.811 137.016 180.869V158.369ZM155.016 149.369C150.045 149.369 146.016 153.399 146.016 158.369V180.869C146.016 185.84 150.045 189.869 155.016 189.869C159.986 189.869 164.016 185.84 164.016 180.869V158.369C164.016 153.399 159.986 149.369 155.016 149.369Z" fill="#2D254C"/>
<path fill-rule="evenodd" clip-rule="evenodd" d="M186.516 176.369C189.001 176.369 191.016 178.384 191.016 180.869C191.016 190.417 187.223 199.574 180.472 206.325C173.72 213.077 164.564 216.869 155.016 216.869C145.468 216.869 136.311 213.077 129.56 206.325C122.809 199.574 119.016 190.417 119.016 180.869C119.016 178.384 121.031 176.369 123.516 176.369C126.001 176.369 128.016 178.384 128.016 180.869C128.016 188.03 130.861 194.898 135.924 199.961C140.987 205.025 147.855 207.869 155.016 207.869C162.177 207.869 169.044 205.025 174.108 199.961C179.171 194.898 182.016 188.03 182.016 180.869C182.016 178.384 184.031 176.369 186.516 176.369Z" fill="#2D254C"/>
<path fill-rule="evenodd" clip-rule="evenodd" d="M155.016 212.369C157.501 212.369 159.516 214.384 159.516 216.869V225.869C159.516 228.355 157.501 230.369 155.016 230.369C152.531 230.369 150.516 228.355 150.516 225.869V216.869C150.516 214.384 152.531 212.369 155.016 212.369Z" fill="#2D254C"/>
</g>
<g opacity="0.3">
<path fill-rule="evenodd" clip-rule="evenodd" d="M131.865 129.763C129.723 127.62 129.723 124.147 131.865 122.005C138.006 115.864 146.325 112.399 155.009 112.365C163.693 112.331 172.039 115.73 178.228 121.822C180.387 123.948 180.414 127.421 178.289 129.58C176.164 131.739 172.691 131.766 170.531 129.641C166.405 125.579 160.842 123.313 155.052 123.336C149.263 123.359 143.717 125.669 139.623 129.763C137.481 131.905 134.007 131.905 131.865 129.763Z" fill="#2D254C"/>
<path fill-rule="evenodd" clip-rule="evenodd" d="M120.228 107.155C118.086 105.012 118.086 101.539 120.228 99.3969C129.439 90.1857 141.918 84.9882 154.944 84.9369C167.97 84.8856 180.489 89.9846 189.773 99.1229C191.932 101.248 191.959 104.721 189.834 106.88C187.708 109.04 184.235 109.067 182.076 106.942C174.856 99.8341 165.119 95.8682 154.987 95.9081C144.856 95.948 135.15 99.9905 127.986 107.155C125.844 109.297 122.371 109.297 120.228 107.155Z" fill="#2D254C"/>
</g>
</svg>
