<svg width="256" height="121" viewBox="0 0 256 121" fill="none" xmlns="http://www.w3.org/2000/svg">
<g clip-path="url(#clip0_503:3931)">
<path d="M110.298 20.3002C113.498 17.2002 117.198 13.5002 122.098 14.1002C125.698 13.8002 125.298 19.5002 122.998 20.9002C119.098 18.2002 114.698 21.2002 111.798 23.9002C103.398 31.5002 97.4984 41.3002 90.9984 50.4002C91.5984 50.5002 92.8984 50.7002 93.4984 50.8002L93.9984 51.3002C96.4984 53.7002 97.1984 47.2002 99.9984 49.0002C100.798 49.3002 101.598 49.6002 102.298 49.9002C102.698 49.3002 103.398 48.2002 103.798 47.7002C104.598 53.0002 106.498 57.9002 108.298 62.9002C110.098 61.0002 111.798 59.1002 114.198 57.9002C113.098 60.5002 111.198 62.5002 109.198 64.4002C112.098 73.2002 117.298 81.6002 116.698 91.2002C116.598 96.1002 114.198 100.6 111.298 104.4C116.998 108.6 124.398 109.8 131.098 108C139.598 106.2 146.798 100.6 151.598 93.5002C161.398 78.9002 164.798 61.4002 171.298 45.3002C173.298 40.6002 176.198 34.6002 182.198 35.0002C183.498 37.1002 183.798 39.6002 183.498 42.1002C181.798 41.9002 180.098 41.4002 178.298 41.6002C175.898 42.7002 174.698 45.2002 173.298 47.2002C173.798 47.7002 174.198 48.2002 174.698 48.6002C175.998 46.7002 178.498 48.0002 180.398 47.9002C179.998 51.2002 177.198 53.1002 174.098 53.4002C175.398 52.2002 176.798 51.1002 178.098 49.9002C176.598 50.1002 175.098 50.3002 173.598 50.5002C172.998 50.2002 172.498 49.8002 171.898 49.5002C166.498 65.8002 162.898 83.1002 153.698 97.8002C148.298 106.7 139.298 113.8 128.698 114.9C120.798 116.4 112.498 113.7 107.098 107.6C102.698 110.2 97.4984 112 92.2984 111.1C96.2984 108.6 100.698 106.8 104.498 103.9C98.5984 92.4002 98.0984 77.8002 105.298 66.7002C102.298 62.6002 97.5984 59.8002 95.4984 55.1002C94.9984 54.3002 94.5984 52.7002 93.3984 53.3002C93.3984 55.2002 93.7984 57.1002 94.0984 59.0002C92.7984 57.3002 86.6984 54.6002 92.6984 54.0002C91.7984 53.0002 90.7984 52.1002 89.8984 51.1002C88.9984 52.8002 87.9984 54.4002 86.9984 56.0002C89.6984 61.5002 92.4984 67.0002 95.1984 72.5002C97.9984 77.7002 99.9984 84.5002 96.8984 90.0002C95.1984 93.2002 91.5984 93.5002 88.3984 93.3002C85.6984 96.4002 82.0984 100.8 77.4984 99.2002C75.2984 96.4002 74.8984 92.7002 73.5984 89.4002C71.4984 90.4002 71.8984 93.0002 71.5984 94.9002C71.1984 100.1 70.1984 105.6 66.5984 109.5C62.1984 114.8 54.7984 115.3 48.4984 116.2C50.3984 113.8 53.5984 113.1 56.0984 111.5C61.7984 108.3 67.0984 103.4 68.4984 96.8002C69.8984 92.1002 69.1984 86.0002 73.7984 82.9002C75.9984 86.1002 76.9984 90.0002 78.5984 93.5002C80.1984 93.0002 81.7984 92.5002 83.3984 91.9002C81.4984 87.3002 81.9984 81.9002 84.7984 77.8002C85.9984 75.9002 88.2984 76.0002 90.2984 76.5002C91.8984 70.3002 87.0984 65.5002 82.8984 61.9002C75.8984 72.7002 66.7984 82.3002 55.8984 89.1002C46.9984 94.3002 36.7984 97.2002 26.4984 97.6002C25.9984 102.1 25.1984 106.8 22.1984 110.3C17.9984 115.5 8.99844 116.4 4.29844 111.4C1.29844 108.7 0.198438 104.6 -0.101562 100.7V96.3002C0.598437 89.7002 4.49844 83.4002 10.4984 80.4002C18.1984 76.6002 27.4984 78.3002 35.0984 74.2002C37.7984 72.7002 39.5984 70.1002 41.7984 67.9002C40.8984 70.6002 39.7984 73.4002 37.3984 75.1002C31.8984 79.5002 24.4984 79.6002 17.8984 80.7002C12.4984 81.6002 7.09844 84.4002 4.19844 89.2002C1.39844 94.2002 1.39844 101.2 5.19844 105.7C10.5984 110.8 21.2984 109.4 23.7984 101.9C25.3984 98.4002 22.7984 94.9002 20.1984 92.8002C20.1984 90.6002 20.1984 88.5002 20.1984 86.3002C23.1984 88.4002 24.9984 91.5002 26.4984 94.7002C35.3984 94.2002 43.8984 90.7002 51.7984 86.7002C63.5984 80.5002 72.3984 70.2002 80.7984 60.1002C78.2984 57.2002 76.8984 52.8002 79.6984 49.6002C80.3984 49.6002 81.7984 49.8002 82.4984 49.8002C82.5984 49.0002 82.8984 47.5002 82.9984 46.7002C83.9984 48.7002 84.9984 50.8002 85.8984 52.9002C94.1984 42.1002 100.898 30.1002 110.298 20.3002ZM97.1984 55.0002C99.2984 57.9002 102.098 60.2002 104.698 62.6002C103.898 60.5002 103.198 58.4002 102.598 56.3002C100.398 56.7002 98.5984 55.5002 99.2984 52.9002C99.9984 53.3002 101.298 54.2002 101.998 54.6002C102.198 53.6002 102.098 52.6002 101.798 51.6002C100.798 51.2002 99.8984 50.8002 98.8984 50.4002C97.3984 51.4002 95.9984 53.3002 97.1984 55.0002ZM80.3984 51.4002C78.1984 53.6002 80.0984 56.4002 81.3984 58.4002C82.3984 57.6002 83.2984 56.7002 84.0984 55.7002C81.7984 56.2002 80.4984 55.4002 80.1984 53.2002C80.9984 53.4002 82.5984 53.7002 83.3984 53.8002C82.5984 52.7002 82.0984 50.7002 80.3984 51.4002ZM84.4984 59.5002C83.2984 60.8002 85.1984 63.3002 86.7984 62.8002C87.1984 61.5002 86.1984 58.6002 84.4984 59.5002ZM106.498 68.6002C100.998 78.5002 101.698 91.5002 107.998 100.8C113.398 95.7002 115.998 87.4002 112.098 80.7002C111.698 84.1002 111.098 87.4002 109.698 90.6002L108.698 90.1002C108.698 91.4002 108.798 92.6002 108.898 93.9002L110.098 93.5002C109.598 94.7002 108.898 95.7002 108.098 96.7002C107.298 96.2002 106.598 95.6002 105.798 95.0002C106.098 93.1002 107.098 92.4002 108.698 92.9002C108.498 92.2002 108.198 90.9002 107.998 90.2002C112.298 83.6002 111.098 74.7002 106.498 68.6002ZM92.0984 73.7002C91.6984 75.2002 91.2984 76.7002 90.9984 78.2002C91.5984 81.3002 91.5984 84.5002 91.3984 87.6002C93.3984 86.9002 95.9984 86.3002 96.7984 84.0002C96.3984 80.2002 94.4984 76.6002 92.0984 73.7002ZM85.2984 87.0002C85.8984 87.5002 86.5984 88.0002 87.1984 88.4002C89.1984 87.3002 90.6984 84.3002 88.4984 82.6002C85.7984 81.7002 84.8984 85.0002 85.2984 87.0002Z" fill="white"/>
<path d="M189.8 52.8003C193.8 50.9003 197.5 48.6003 201.8 47.3003C200.1 49.9003 197.1 50.8003 194.5 52.2003C192.2 53.4003 189.9 54.7003 187.5 55.7003C187.9 54.5003 188.4 53.2003 189.8 52.8003Z" fill="white"/>
<path d="M212.8 47.4004C213 47.6004 213.3 47.9004 213.5 48.1004C215.8 62.3004 225.3 74.5004 226.3 88.9004C227.2 101.6 214.7 113.3 202 111.1C209 107.5 216.4 103.7 220.8 96.8004C224 92.3004 224.9 85.7004 221.7 81.1004C221.1 84.9004 220.8 89.4004 217.4 91.9004C218.2 88.6004 220.1 85.5004 220.2 82.0004C220.8 74.5004 216.4 67.8004 211.5 62.5004C208.7 59.6004 204.2 56.6004 205.4 51.9004C206 48.7004 209.8 47.8004 212.2 49.7004C212.3 49.2004 212.7 48.0004 212.8 47.4004ZM206.3 54.0004C207.9 57.5004 211.3 59.7004 213.9 62.5004C213.4 60.4004 212.9 58.4004 212.4 56.3004C211.7 56.3004 210.3 56.3004 209.6 56.2004C209.3 55.1004 209.1 54.0004 208.8 53.0004C209.9 53.5004 210.9 53.9004 212 54.4004C211.8 53.7004 211.5 52.4004 211.4 51.7004C210.8 51.4004 209.5 50.7004 208.9 50.4004C207.6 51.2004 206 52.2004 206.3 54.0004Z" fill="white"/>
<path d="M221.099 46.9004C223.199 48.8004 225.699 51.3004 224.999 54.4004C225.699 54.7004 226.499 55.1004 227.199 55.4004C228.999 54.3004 230.799 53.3004 232.699 52.3004C232.799 52.7004 232.899 53.5004 232.899 53.9004C228.399 56.3004 223.899 58.8004 219.199 60.7004C219.999 57.6004 223.599 57.2004 225.899 55.9004C224.999 55.2004 224.199 54.4004 224.399 53.1004C223.699 50.8004 220.499 49.7004 221.099 46.9004Z" fill="white"/>
<path d="M129.699 49.9004C132.799 49.2004 135.799 48.4004 138.899 47.9004C138.899 50.1004 139.299 52.6004 137.699 54.3004C134.999 55.9004 131.799 56.2004 128.699 56.3004C129.099 54.2004 129.399 52.1004 129.699 49.9004Z" fill="white"/>
<path d="M183.199 50.5001C183.799 49.5001 184.499 48.5001 185.099 47.6001C188.099 48.8001 186.299 51.7001 184.499 53.1001C184.799 52.2001 185.299 50.5001 185.599 49.7001C184.999 49.9001 183.799 50.3001 183.199 50.5001Z" fill="white"/>
<path d="M235.399 51.5001C236.399 48.8001 239.899 48.7001 241.799 50.4001V48.6001H243.199C245.399 60.5001 251.899 71.1001 255.099 82.8001C255.899 87.2001 256.099 91.8001 255.199 96.2001C252.599 105 243.999 112.1 234.699 111.8C232.099 111.5 230.299 113.7 228.299 115C229.399 115.3 230.599 115.6 231.699 115.9C231.199 117.5 230.099 118.8 228.799 119.9C227.999 119.9 226.499 119.9 225.699 119.9C226.999 119.2 228.199 118.5 229.499 117.8C224.499 117.7 228.099 113.1 229.999 111.6C230.599 111.6 231.899 111.6 232.499 111.5C235.599 109.1 239.399 107.9 242.699 105.8C241.599 105.3 240.499 104.9 239.299 104.6C238.999 104.2 238.499 103.4 238.199 102.9C238.999 102 239.899 100.9 241.299 101.5C242.099 102.6 242.799 103.8 243.599 105C245.599 103 247.699 100.9 249.699 98.9001C248.699 98.4001 247.799 96.9001 246.399 97.9001C245.399 97.0001 244.699 95.5001 246.099 94.5001C247.599 93.6001 248.799 94.9001 248.999 96.3001C249.599 96.7001 250.199 97.2001 250.799 97.6001C252.199 94.0001 254.099 90.2001 252.999 86.2001C252.799 83.2001 250.799 80.9001 249.599 78.3001C248.599 72.1001 244.799 66.8001 240.399 62.5001C237.699 59.7001 233.499 55.9001 235.399 51.5001ZM236.899 55.8001C238.999 58.4001 241.499 60.6001 243.899 62.9001C243.399 60.8001 242.699 58.8001 242.199 56.7001C239.799 57.0001 238.699 55.8001 238.699 53.3001C239.699 53.9001 240.799 54.4001 241.899 54.9001C241.799 53.3001 240.899 50.8001 238.899 51.1001C236.399 50.9001 235.399 54.3001 236.899 55.8001Z" fill="white"/>
<path d="M253.199 48.8002C254.999 48.3002 255.499 48.8002 254.899 50.4002C253.099 51.0002 252.599 50.4002 253.199 48.8002Z" fill="white"/>
<path d="M199.398 52.7002C200.198 51.9002 201.098 51.0002 201.998 50.2002C203.498 52.2002 202.498 54.4002 200.598 55.7002C200.898 54.7002 201.198 53.7002 201.598 52.7002C200.998 52.7002 199.898 52.7002 199.398 52.7002Z" fill="white"/>
<path d="M248.397 55.0001C247.297 53.5001 249.097 51.1001 250.697 52.4001C251.997 52.8001 251.097 54.5001 251.397 55.4001C250.497 55.2001 248.697 56.2001 248.397 55.0001Z" fill="white"/>
<path d="M59.2 59.0002C60.2 57.4002 60.1 54.6002 62.5 54.2002C62.4 57.0002 62.5 59.9002 61.6 62.6002C61.5 61.6002 61.2 59.6002 61.1 58.6002C60.3 59.5002 59.6 60.5002 58.8 61.4002C58.5 60.9002 57.8 59.8002 57.4 59.2002C57.3 60.0002 57.1 61.5002 57 62.3002L55.5 63.0002C55.8 60.5002 56.2 58.1002 56.6 55.6002C57 55.6002 57.8 55.6002 58.2 55.6002C58.6 56.8002 58.9 57.9002 59.2 59.0002Z" fill="white"/>
<path d="M230.597 57.5C231.597 57.8 233.597 57.4 233.597 59.1C234.097 60.2 232.697 60.7 232.197 61.5C231.697 61.3 230.797 60.8 230.297 60.5C230.397 59.5 230.497 58.5 230.597 57.5Z" fill="white"/>
<path d="M253.6 60.2004C252.7 58.3004 254.1 57.2004 256 56.9004V61.1004C255.4 60.9004 254.2 60.4004 253.6 60.2004Z" fill="white"/>
<path d="M190.9 64.9003C192.9 60.4003 198.2 59.2003 202.3 57.3003C202.5 63.7003 202.2 70.6003 198.3 76.0003C195.6 80.0003 191.2 84.1003 185.9 83.1003C183.4 82.4003 182.4 79.9003 181.8 77.6003C180.9 80.7003 179.2 83.6003 176.5 85.4003C173.9 87.1003 174.1 90.4003 173 93.0003C167.6 107.5 154.1 118.2 139 120.9H125.5C130.2 119.4 135.2 118.8 139.8 117.1C143.3 115.9 146.5 114.1 149.9 112.7C148.7 112.1 147.5 111.5 146.3 110.9C146.5 109.5 147.1 108.1 148.8 108.2C150.5 108.9 149.7 111 150.1 112.5C159.9 106.3 169.3 98.0003 172.7 86.6003C171 86.7003 168.9 87.9003 167.5 86.4003C164.9 84.0003 165.1 79.4003 168.1 77.3003C170.8 76.3003 173 78.4003 174.7 80.2003C179.3 78.1003 180.5 72.9003 183.3 69.1003C183.6 71.5003 182.4 74.8003 184.9 76.4003C186.2 77.1003 187.8 77.1003 189.3 77.4003C189.4 73.2003 189.3 68.9003 190.9 64.9003ZM192.7 68.7003C190.9 71.0003 190.6 74.0003 190.5 76.9003C194.8 73.7003 198.5 69.6003 200.7 64.6003C197.7 65.3003 194.6 66.2003 192.7 68.7003Z" fill="white"/>
<path d="M182.998 62.4C184.198 60.6 185.498 57.4 188.198 58.9C189.898 63.4 183.798 67 180.198 64.4C178.998 65.5 177.798 66.5 176.398 67.1C177.498 64.5 179.498 61.2 182.998 62.4Z" fill="white"/>
<path d="M94.0984 63.9001C92.5984 62.8001 94.0984 61.5001 94.9984 60.6001C95.4984 60.8001 96.3984 61.2001 96.8984 61.4001C98.0984 63.2001 95.5984 65.6001 94.0984 63.9001Z" fill="white"/>
<path d="M169.5 66.5C170.3 64.3 171.4 62 174 62C175.9 64.9 174.2 68.9 171.2 70.2C172 68.4 173 66.7 173.2 64.7C172 65.3 170.8 65.9 169.5 66.5Z" fill="white"/>
<path d="M225.898 64.5C227.598 65.1 229.298 65.7 230.898 66.3C230.698 68.2 230.398 70.1 229.798 71.9C227.998 71.4 226.398 70.7 224.598 70C224.998 68.2 225.498 66.3 225.898 64.5Z" fill="white"/>
<path d="M238.697 65.5C240.097 65.7 240.997 66.8 241.697 68C240.897 68.5 240.097 68.9 239.197 69.4C238.597 68.9 237.897 68.4 237.297 68C237.697 67.2 238.197 66.3 238.697 65.5Z" fill="white"/>
<path d="M96.4972 70.3004C96.3972 68.6004 97.7972 67.9004 99.0972 67.4004C99.4972 68.3004 100.197 69.2004 100.297 70.2004C99.5973 70.7004 98.8972 71.2004 98.0972 71.6004C97.6972 71.3004 96.8972 70.7004 96.4972 70.3004Z" fill="white"/>
<path d="M253.497 67.6001C254.097 67.6001 255.397 67.6001 255.997 67.6001V71.5001C253.997 70.9001 252.297 69.9001 253.497 67.6001Z" fill="white"/>
<path d="M206.597 68.3002C209.597 67.1002 211.197 70.4002 211.197 72.9002C209.897 72.2002 208.697 71.4002 207.197 71.2002C208.797 75.5002 211.897 79.7002 210.597 84.5002C210.297 84.7002 209.797 85.1002 209.497 85.3002C208.797 83.5002 207.997 81.8002 207.097 80.2002C206.297 80.3002 204.697 80.5002 203.797 80.5002C202.897 79.2002 202.497 77.9002 202.597 76.3002C205.497 75.6002 207.397 77.8002 208.797 80.0002C208.697 75.8002 204.097 72.6002 206.597 68.3002Z" fill="white"/>
<path d="M78.3984 70.4002C81.3984 69.5002 84.3984 68.8002 87.3984 68.2002C87.2984 70.5002 88.1984 73.4002 85.8984 75.0002C83.2984 76.4002 80.2984 76.5002 77.3984 76.7002C77.6984 74.6002 78.0984 72.5002 78.3984 70.4002Z" fill="white"/>
<path d="M229.399 77.7004C233.299 74.9004 238.199 72.2004 243.199 73.8004C245.699 75.7004 246.399 79.2004 245.999 82.1004C245.199 88.2004 243.399 94.5004 239.199 99.1004C232.899 106.4 223.499 110.6 214.199 112.6C222.599 106.3 232.399 101.3 238.399 92.4004C240.699 89.0004 243.599 85.3004 243.399 81.1004C242.099 78.9004 239.199 79.1004 236.999 79.6004C233.699 80.5004 230.899 82.8004 228.199 84.8004C228.199 82.4004 227.499 79.5004 229.399 77.7004Z" fill="white"/>
<path d="M105.397 84.9002C105.097 81.6002 106.297 78.2002 108.397 75.7002C107.397 78.7002 105.497 81.8002 106.997 85.1002C107.597 84.6002 108.597 83.8002 109.197 83.3002C108.797 84.6002 108.297 85.8002 107.797 87.0002C106.697 86.7002 105.097 86.5002 105.397 84.9002Z" fill="white"/>
<path d="M78.8984 82.0002C78.2984 80.4002 78.2984 78.8002 78.8984 77.2002C80.4984 78.0002 81.3984 79.8002 79.3984 80.7002C80.4984 82.3002 80.5984 84.2002 80.7984 86.0002C79.2984 84.6002 77.0984 83.7002 76.3984 81.7002C76.9984 81.8002 78.2984 81.9002 78.8984 82.0002Z" fill="white"/>
<path d="M198.397 82.5002C201.097 82.2002 201.097 85.9002 198.897 86.7002C197.197 85.8002 196.197 83.4002 198.397 82.5002Z" fill="white"/>
<path d="M249.698 82.6003C250.298 82.4003 250.898 82.4003 251.498 82.5003C250.598 85.8003 250.698 90.5003 247.098 92.2003C248.198 89.0003 250.098 86.0003 249.698 82.6003Z" fill="white"/>
<path d="M65.5 86.3003C65.6 84.6003 66.5 83.6003 68.1 83.3003C68.5 84.2003 69 85.2003 69.5 86.1003C68.6 86.5003 67.8 86.9003 67 87.4003C66.6 87.2003 65.9 86.6003 65.5 86.3003Z" fill="white"/>
<path d="M235.799 84.9004C237.199 82.7004 238.799 84.7004 239.699 86.1004C238.499 88.3004 234.699 87.7004 235.799 84.9004Z" fill="white"/>
<path d="M175.999 86.9001C178.799 86.3001 181.699 85.5001 184.399 84.6001C186.199 89.3001 183.399 94.6001 179.399 97.1001C175.899 99.4001 171.999 102.3 172.099 106.9C171.599 109.6 173.399 114.7 176.899 113.1C180.299 108.8 180.199 102.1 185.099 98.9001C185.899 98.8001 187.299 98.6001 188.099 98.6001C189.699 100.9 190.499 103.8 192.899 105.4C196.399 106.3 200.299 104.6 202.199 101.7C199.399 101.5 195.999 101.1 194.299 98.5001C192.399 96.5001 193.899 92.4001 196.799 92.4001C199.599 92.0001 203.999 93.2001 202.599 96.9001C199.899 95.9001 197.199 95.0001 194.299 95.6001C195.899 98.9001 200.199 99.3001 203.299 98.3001C207.399 95.9001 210.199 91.8001 214.199 89.3001C216.199 90.9001 215.799 93.5001 215.699 95.8001C210.199 96.6001 207.499 101.8 204.399 105.7C201.199 109.3 196.699 113.4 191.399 111.5C188.199 110.4 188.299 106.2 185.899 104.7C185.299 105 184.199 105.7 183.699 106L182.899 105.6C182.999 106.8 183.199 108 183.499 109.2L184.899 107.5C188.199 108.7 186.399 112.6 183.499 111.4C184.199 110.6 182.499 108.4 181.899 109.7C180.599 112.2 179.999 115.1 177.999 117.2C176.199 118.5 173.699 117.2 172.599 115.6C169.699 111.1 169.499 104.5 173.199 100.3C175.999 97.0001 180.199 95.3001 182.899 91.9001C180.299 92.6001 177.699 93.3001 174.999 93.4001C175.299 91.2001 175.699 89.1001 175.999 86.9001Z" fill="white"/>
<path d="M205.698 86.6002C207.198 86.3002 208.698 86.3002 209.398 87.9002C209.098 88.4002 208.398 89.4002 208.098 89.9002C207.498 89.7002 206.198 89.4002 205.598 89.2002C205.598 88.4002 205.598 87.5002 205.698 86.6002Z" fill="white"/>
<path d="M160.598 94.1002C161.298 92.5002 162.398 91.0002 164.298 91.5002C164.398 92.6002 164.498 93.6002 164.698 94.7002C163.298 94.9002 161.898 94.5002 160.598 94.1002Z" fill="white"/>
<path d="M60.1993 94.7C60.0993 92.5 61.8993 91.9 63.7993 92.2C63.7993 93.3 63.5993 94.4 63.3993 95.5C62.2993 95.9 61.2993 95.2 60.1993 94.7Z" fill="white"/>
<path d="M230.499 92.6002C232.399 92.0002 234.899 93.1002 233.499 95.4002C231.399 97.4002 229.799 94.5002 230.499 92.6002Z" fill="white"/>
<path d="M95.3984 96.0001C95.8984 93.8001 99.4984 93.4001 99.3984 95.9001C99.3984 98.4001 96.1984 97.9001 95.3984 96.0001Z" fill="white"/>
<path d="M51.3987 95.4003C52.8987 94.8003 53.2987 96.5003 53.9987 97.4003L51.8987 97.1003C52.5987 99.2003 53.7987 101.3 53.4987 103.6C52.1987 102.8 51.4987 101.2 49.9987 100.6C48.1987 99.6003 51.5987 97.7003 51.9987 100.3C51.2987 98.8003 51.0987 97.1003 51.3987 95.4003Z" fill="white"/>
<path d="M88.3 98C89.3 98.7 90.2 99.5 91.1 100.4H88.9C89.4 102.5 91.3 104.9 89.9 107C89.3 105.4 88.3 104.2 86.5 104.1C86.5 103.6 86.5 102.7 86.5 102.2C87.2 102.5 88.5 103.2 89.1 103.6C88.2 101.8 87.9 99.9 88.3 98Z" fill="white"/>
<path d="M57.1968 102.1C56.7968 99.9003 60.6968 100.1 60.5968 102.1C61.0968 103.4 59.2968 103.8 58.6968 104.7C58.1968 103.8 56.8968 103.3 57.1968 102.1Z" fill="white"/>
<path d="M155.498 100.6C156.798 100.1 157.798 101.1 158.698 101.9C158.098 102.8 157.498 103.6 156.898 104.5C156.098 104.1 155.298 103.6 154.398 103.2C154.698 102.3 154.898 101.4 155.498 100.6Z" fill="white"/>
<path d="M32.3969 101.5C34.0969 100.1 36.1969 103.2 34.5969 104.5C33.4969 104.6 32.3969 104.5 31.2969 104.4C31.6969 103.5 31.2969 102 32.3969 101.5Z" fill="white"/>
<path d="M44.0977 104C44.2977 102.4 45.3977 100.9 46.9977 101.9C48.9977 103 47.0977 104.6 46.1977 105.7C45.4977 105.1 44.7977 104.6 44.0977 104Z" fill="white"/>
<path d="M93.0977 101.2C94.2977 101.3 96.3977 100.6 96.5977 102.4C96.4977 103.2 96.1977 103.8 95.6977 104.5C95.0977 104.5 93.9977 104.4 93.3977 104.3C93.2977 103.3 93.1977 102.2 93.0977 101.2Z" fill="white"/>
<path d="M72.7969 109.8C73.2969 107.4 74.2969 105.2 75.5969 103.1C75.1969 105.1 74.5969 107.1 74.6969 109.2C75.4969 109.2 77.1969 109.2 77.9969 109.2C76.9969 110.6 75.7969 112 73.8969 111.9C73.4969 111.2 73.0969 110.5 72.7969 109.8Z" fill="white"/>
<path d="M79.5977 105.3C80.5977 104.4 81.5977 103.5 82.7977 102.9C83.4977 105 82.8977 107.1 81.2977 108.5C81.4977 107.7 81.8977 106.1 82.0977 105.3C81.3977 105.4 80.1977 105.3 79.5977 105.3Z" fill="white"/>
<path d="M174 106.5C174.8 105.5 175.6 103.5 177.2 104.4C177.3 104.9 177.5 106 177.6 106.6C176.9 107.4 176.2 108.3 175.4 109.1C175.6 108.4 176.1 106.9 176.4 106.1L174 106.5Z" fill="white"/>
<path d="M25.5 109C26.3 107.5 28.5 106.5 29.4 108.5C30 111.3 26.1 111.6 25.5 109Z" fill="white"/>
<path d="M38.7979 111.8C37.3979 110.4 37.0979 108.5 38.9979 107.4C41.5979 108.2 41.5979 111.3 38.7979 111.8Z" fill="white"/>
<path d="M51.4989 107.7C54.4989 107.5 53.4989 112.6 50.9989 111.2C48.7989 110.8 49.7989 108 51.4989 107.7Z" fill="white"/>
<path d="M88.0976 112.6C85.6976 111.6 86.2976 107.6 89.1976 108.7C91.1976 110.1 89.5976 111.8 88.0976 112.6Z" fill="white"/>
<path d="M164.199 109.9C164.999 108.9 165.899 108.1 166.999 107.3C167.399 108.3 169.199 109.6 167.999 110.8C166.999 112.4 165.099 110.9 164.199 109.9Z" fill="white"/>
<path d="M253.497 109.8C255.097 109.3 255.697 109.9 255.197 111.6C253.497 112.1 252.997 111.6 253.497 109.8Z" fill="white"/>
</g>
<defs>
<clipPath id="clip0_503:3931">
<rect width="256" height="121" fill="white"/>
</clipPath>
</defs>
</svg>
