<?xml version="1.0" encoding="utf-8"?>
<!-- Generator: Adobe Illustrator 24.1.1, SVG Export Plug-In . SVG Version: 6.00 Build 0)  -->
<svg version="1.1" id="Layer_1" xmlns="http://www.w3.org/2000/svg" xmlns:xlink="http://www.w3.org/1999/xlink" x="0px" y="0px"
	 viewBox="0 0 256 121" style="enable-background:new 0 0 256 121;" xml:space="preserve">
<g id="_x23_ffffffff">
	<path d="M110.3,20.3c3.2-3.1,6.9-6.8,11.8-6.2c3.6-0.3,3.2,5.4,0.9,6.8c-3.9-2.7-8.3,0.3-11.2,3c-8.4,7.6-14.3,17.4-20.8,26.5
		c0.6,0.1,1.9,0.3,2.5,0.4l0.5,0.5c2.5,2.4,3.2-4.1,6-2.3c0.8,0.3,1.6,0.6,2.3,0.9c0.4-0.6,1.1-1.7,1.5-2.2
		c0.8,5.3,2.7,10.2,4.5,15.2c1.8-1.9,3.5-3.8,5.9-5c-1.1,2.6-3,4.6-5,6.5c2.9,8.8,8.1,17.2,7.5,26.8c-0.1,4.9-2.5,9.4-5.4,13.2
		c5.7,4.2,13.1,5.4,19.8,3.6c8.5-1.8,15.7-7.4,20.5-14.5c9.8-14.6,13.2-32.1,19.7-48.2c2-4.7,4.9-10.7,10.9-10.3
		c1.3,2.1,1.6,4.6,1.3,7.1c-1.7-0.2-3.4-0.7-5.2-0.5c-2.4,1.1-3.6,3.6-5,5.6c0.5,0.5,0.9,1,1.4,1.4c1.3-1.9,3.8-0.6,5.7-0.7
		c-0.4,3.3-3.2,5.2-6.3,5.5c1.3-1.2,2.7-2.3,4-3.5c-1.5,0.2-3,0.4-4.5,0.6c-0.6-0.3-1.1-0.7-1.7-1c-5.4,16.3-9,33.6-18.2,48.3
		c-5.4,8.9-14.4,16-25,17.1c-7.9,1.5-16.2-1.2-21.6-7.3c-4.4,2.6-9.6,4.4-14.8,3.5c4-2.5,8.4-4.3,12.2-7.2
		c-5.9-11.5-6.4-26.1,0.8-37.2c-3-4.1-7.7-6.9-9.8-11.6c-0.5-0.8-0.9-2.4-2.1-1.8c0,1.9,0.4,3.8,0.7,5.7c-1.3-1.7-7.4-4.4-1.4-5
		c-0.9-1-1.9-1.9-2.8-2.9c-0.9,1.7-1.9,3.3-2.9,4.9c2.7,5.5,5.5,11,8.2,16.5c2.8,5.2,4.8,12,1.7,17.5c-1.7,3.2-5.3,3.5-8.5,3.3
		c-2.7,3.1-6.3,7.5-10.9,5.9c-2.2-2.8-2.6-6.5-3.9-9.8c-2.1,1-1.7,3.6-2,5.5c-0.4,5.2-1.4,10.7-5,14.6c-4.4,5.3-11.8,5.8-18.1,6.7
		c1.9-2.4,5.1-3.1,7.6-4.7c5.7-3.2,11-8.1,12.4-14.7c1.4-4.7,0.7-10.8,5.3-13.9c2.2,3.2,3.2,7.1,4.8,10.6c1.6-0.5,3.2-1,4.8-1.6
		c-1.9-4.6-1.4-10,1.4-14.1c1.2-1.9,3.5-1.8,5.5-1.3c1.6-6.2-3.2-11-7.4-14.6c-7,10.8-16.1,20.4-27,27.2c-8.9,5.2-19.1,8.1-29.4,8.5
		c-0.5,4.5-1.3,9.2-4.3,12.7c-4.2,5.2-13.2,6.1-17.9,1.1c-3-2.7-4.1-6.8-4.4-10.7v-4.4c0.7-6.6,4.6-12.9,10.6-15.9
		c7.7-3.8,17-2.1,24.6-6.2c2.7-1.5,4.5-4.1,6.7-6.3c-0.9,2.7-2,5.5-4.4,7.2c-5.5,4.4-12.9,4.5-19.5,5.6c-5.4,0.9-10.8,3.7-13.7,8.5
		c-2.8,5-2.8,12,1,16.5c5.4,5.1,16.1,3.7,18.6-3.8c1.6-3.5-1-7-3.6-9.1c0-2.2,0-4.3,0-6.5c3,2.1,4.8,5.2,6.3,8.4
		c8.9-0.5,17.4-4,25.3-8c11.8-6.2,20.6-16.5,29-26.6c-2.5-2.9-3.9-7.3-1.1-10.5c0.7,0,2.1,0.2,2.8,0.2c0.1-0.8,0.4-2.3,0.5-3.1
		c1,2,2,4.1,2.9,6.2C94.2,42.1,100.9,30.1,110.3,20.3 M97.2,55c2.1,2.9,4.9,5.2,7.5,7.6c-0.8-2.1-1.5-4.2-2.1-6.3
		c-2.2,0.4-4-0.8-3.3-3.4c0.7,0.4,2,1.3,2.7,1.7c0.2-1,0.1-2-0.2-3c-1-0.4-1.9-0.8-2.9-1.2C97.4,51.4,96,53.3,97.2,55 M80.4,51.4
		c-2.2,2.2-0.3,5,1,7c1-0.8,1.9-1.7,2.7-2.7c-2.3,0.5-3.6-0.3-3.9-2.5c0.8,0.2,2.4,0.5,3.2,0.6C82.6,52.7,82.1,50.7,80.4,51.4
		 M84.5,59.5c-1.2,1.3,0.7,3.8,2.3,3.3C87.2,61.5,86.2,58.6,84.5,59.5 M106.5,68.6c-5.5,9.9-4.8,22.9,1.5,32.2
		c5.4-5.1,8-13.4,4.1-20.1c-0.4,3.4-1,6.7-2.4,9.9l-1-0.5c0,1.3,0.1,2.5,0.2,3.8l1.2-0.4c-0.5,1.2-1.2,2.2-2,3.2
		c-0.8-0.5-1.5-1.1-2.3-1.7c0.3-1.9,1.3-2.6,2.9-2.1c-0.2-0.7-0.5-2-0.7-2.7C112.3,83.6,111.1,74.7,106.5,68.6 M92.1,73.7
		c-0.4,1.5-0.8,3-1.1,4.5c0.6,3.1,0.6,6.3,0.4,9.4c2-0.7,4.6-1.3,5.4-3.6C96.4,80.2,94.5,76.6,92.1,73.7 M85.3,87
		c0.6,0.5,1.3,1,1.9,1.4c2-1.1,3.5-4.1,1.3-5.8C85.8,81.7,84.9,85,85.3,87z"/>
	<path d="M189.8,52.8c4-1.9,7.7-4.2,12-5.5c-1.7,2.6-4.7,3.5-7.3,4.9c-2.3,1.2-4.6,2.5-7,3.5C187.9,54.5,188.4,53.2,189.8,52.8z"/>
	<path d="M212.8,47.4c0.2,0.2,0.5,0.5,0.7,0.7c2.3,14.2,11.8,26.4,12.8,40.8c0.9,12.7-11.6,24.4-24.3,22.2c7-3.6,14.4-7.4,18.8-14.3
		c3.2-4.5,4.1-11.1,0.9-15.7c-0.6,3.8-0.9,8.3-4.3,10.8c0.8-3.3,2.7-6.4,2.8-9.9c0.6-7.5-3.8-14.2-8.7-19.5
		c-2.8-2.9-7.3-5.9-6.1-10.6c0.6-3.2,4.4-4.1,6.8-2.2C212.3,49.2,212.7,48,212.8,47.4 M206.3,54c1.6,3.5,5,5.7,7.6,8.5
		c-0.5-2.1-1-4.1-1.5-6.2c-0.7,0-2.1,0-2.8-0.1c-0.3-1.1-0.5-2.2-0.8-3.2c1.1,0.5,2.1,0.9,3.2,1.4c-0.2-0.7-0.5-2-0.6-2.7
		c-0.6-0.3-1.9-1-2.5-1.3C207.6,51.2,206,52.2,206.3,54z"/>
	<path d="M221.1,46.9c2.1,1.9,4.6,4.4,3.9,7.5c0.7,0.3,1.5,0.7,2.2,1c1.8-1.1,3.6-2.1,5.5-3.1c0.1,0.4,0.2,1.2,0.2,1.6
		c-4.5,2.4-9,4.9-13.7,6.8c0.8-3.1,4.4-3.5,6.7-4.8c-0.9-0.7-1.7-1.5-1.5-2.8C223.7,50.8,220.5,49.7,221.1,46.9z"/>
	<path d="M129.7,49.9c3.1-0.7,6.1-1.5,9.2-2c0,2.2,0.4,4.7-1.2,6.4c-2.7,1.6-5.9,1.9-9,2C129.1,54.2,129.4,52.1,129.7,49.9z"/>
	<path d="M183.2,50.5c0.6-1,1.3-2,1.9-2.9c3,1.2,1.2,4.1-0.6,5.5c0.3-0.9,0.8-2.6,1.1-3.4C185,49.9,183.8,50.3,183.2,50.5z"/>
	<path d="M235.4,51.5c1-2.7,4.5-2.8,6.4-1.1v-1.8l1.4,0c2.2,11.9,8.7,22.5,11.9,34.2c0.8,4.4,1,9,0.1,13.4
		c-2.6,8.8-11.2,15.9-20.5,15.6c-2.6-0.3-4.4,1.9-6.4,3.2c1.1,0.3,2.3,0.6,3.4,0.9c-0.5,1.6-1.6,2.9-2.9,4c-0.8,0-2.3,0-3.1,0
		c1.3-0.7,2.5-1.4,3.8-2.1c-5-0.1-1.4-4.7,0.5-6.2c0.6,0,1.9,0,2.5-0.1c3.1-2.4,6.9-3.6,10.2-5.7c-1.1-0.5-2.2-0.9-3.4-1.2
		c-0.3-0.4-0.8-1.2-1.1-1.7c0.8-0.9,1.7-2,3.1-1.4c0.8,1.1,1.5,2.3,2.3,3.5c2-2,4.1-4.1,6.1-6.1c-1-0.5-1.9-2-3.3-1
		c-1-0.9-1.7-2.4-0.3-3.4c1.5-0.9,2.7,0.4,2.9,1.8c0.6,0.4,1.2,0.9,1.8,1.3c1.4-3.6,3.3-7.4,2.2-11.4c-0.2-3-2.2-5.3-3.4-7.9
		c-1-6.2-4.8-11.5-9.2-15.8C237.7,59.7,233.5,55.9,235.4,51.5 M236.9,55.8c2.1,2.6,4.6,4.8,7,7.1c-0.5-2.1-1.2-4.1-1.7-6.2
		c-2.4,0.3-3.5-0.9-3.5-3.4c1,0.6,2.1,1.1,3.2,1.6c-0.1-1.6-1-4.1-3-3.8C236.4,50.9,235.4,54.3,236.9,55.8z"/>
	<path d="M253.2,48.8c1.8-0.5,2.3,0,1.7,1.6C253.1,51,252.6,50.4,253.2,48.8z"/>
	<path d="M199.4,52.7c0.8-0.8,1.7-1.7,2.6-2.5c1.5,2,0.5,4.2-1.4,5.5c0.3-1,0.6-2,1-3C201,52.7,199.9,52.7,199.4,52.7z"/>
	<path d="M248.4,55c-1.1-1.5,0.7-3.9,2.3-2.6c1.3,0.4,0.4,2.1,0.7,3C250.5,55.2,248.7,56.2,248.4,55z"/>
	<path d="M59.2,59c1-1.6,0.9-4.4,3.3-4.8c-0.1,2.8,0,5.7-0.9,8.4c-0.1-1-0.4-3-0.5-4c-0.8,0.9-1.5,1.9-2.3,2.8
		c-0.3-0.5-1-1.6-1.4-2.2c-0.1,0.8-0.3,2.3-0.4,3.1l-1.5,0.7c0.3-2.5,0.7-4.9,1.1-7.4c0.4,0,1.2,0,1.6,0
		C58.6,56.8,58.9,57.9,59.2,59z"/>
	<path d="M230.6,57.5c1,0.3,3-0.1,3,1.6c0.5,1.1-0.9,1.6-1.4,2.4c-0.5-0.2-1.4-0.7-1.9-1C230.4,59.5,230.5,58.5,230.6,57.5z"/>
	<path d="M253.6,60.2c-0.9-1.9,0.5-3,2.4-3.3v4.2C255.4,60.9,254.2,60.4,253.6,60.2z"/>
	<path d="M190.9,64.9c2-4.5,7.3-5.7,11.4-7.6c0.2,6.4-0.1,13.3-4,18.7c-2.7,4-7.1,8.1-12.4,7.1c-2.5-0.7-3.5-3.2-4.1-5.5
		c-0.9,3.1-2.6,6-5.3,7.8c-2.6,1.7-2.4,5-3.5,7.6c-5.4,14.5-18.9,25.2-34,27.9h-13.5c4.7-1.5,9.7-2.1,14.3-3.8
		c3.5-1.2,6.7-3,10.1-4.4c-1.2-0.6-2.4-1.2-3.6-1.8c0.2-1.4,0.8-2.8,2.5-2.7c1.7,0.7,0.9,2.8,1.3,4.3c9.8-6.2,19.2-14.5,22.6-25.9
		c-1.7,0.1-3.8,1.3-5.2-0.2c-2.6-2.4-2.4-7,0.6-9.1c2.7-1,4.9,1.1,6.6,2.9c4.6-2.1,5.8-7.3,8.6-11.1c0.3,2.4-0.9,5.7,1.6,7.3
		c1.3,0.7,2.9,0.7,4.4,1C189.4,73.2,189.3,68.9,190.9,64.9 M192.7,68.7c-1.8,2.3-2.1,5.3-2.2,8.2c4.3-3.2,8-7.3,10.2-12.3
		C197.7,65.3,194.6,66.2,192.7,68.7z"/>
	<path d="M183,62.4c1.2-1.8,2.5-5,5.2-3.5c1.7,4.5-4.4,8.1-8,5.5c-1.2,1.1-2.4,2.1-3.8,2.7C177.5,64.5,179.5,61.2,183,62.4z"/>
	<path d="M94.1,63.9c-1.5-1.1,0-2.4,0.9-3.3c0.5,0.2,1.4,0.6,1.9,0.8C98.1,63.2,95.6,65.6,94.1,63.9z"/>
	<path d="M169.5,66.5c0.8-2.2,1.9-4.5,4.5-4.5c1.9,2.9,0.2,6.9-2.8,8.2c0.8-1.8,1.8-3.5,2-5.5C172,65.3,170.8,65.9,169.5,66.5z"/>
	<path d="M225.9,64.5c1.7,0.6,3.4,1.2,5,1.8c-0.2,1.9-0.5,3.8-1.1,5.6c-1.8-0.5-3.4-1.2-5.2-1.9C225,68.2,225.5,66.3,225.9,64.5z"/>
	<path d="M238.7,65.5c1.4,0.2,2.3,1.3,3,2.5c-0.8,0.5-1.6,0.9-2.5,1.4c-0.6-0.5-1.3-1-1.9-1.4C237.7,67.2,238.2,66.3,238.7,65.5z"/>
	<path d="M96.5,70.3c-0.1-1.7,1.3-2.4,2.6-2.9c0.4,0.9,1.1,1.8,1.2,2.8c-0.7,0.5-1.4,1-2.2,1.4C97.7,71.3,96.9,70.7,96.5,70.3z"/>
	<path d="M253.5,67.6c0.6,0,1.9,0,2.5,0v3.9C254,70.9,252.3,69.9,253.5,67.6z"/>
	<path d="M206.6,68.3c3-1.2,4.6,2.1,4.6,4.6c-1.3-0.7-2.5-1.5-4-1.7c1.6,4.3,4.7,8.5,3.4,13.3c-0.3,0.2-0.8,0.6-1.1,0.8
		c-0.7-1.8-1.5-3.5-2.4-5.1c-0.8,0.1-2.4,0.3-3.3,0.3c-0.9-1.3-1.3-2.6-1.2-4.2c2.9-0.7,4.8,1.5,6.2,3.7
		C208.7,75.8,204.1,72.6,206.6,68.3z"/>
	<path d="M78.4,70.4c3-0.9,6-1.6,9-2.2c-0.1,2.3,0.8,5.2-1.5,6.8c-2.6,1.4-5.6,1.5-8.5,1.7C77.7,74.6,78.1,72.5,78.4,70.4z"/>
	<path d="M229.4,77.7c3.9-2.8,8.8-5.5,13.8-3.9c2.5,1.9,3.2,5.4,2.8,8.3c-0.8,6.1-2.6,12.4-6.8,17c-6.3,7.3-15.7,11.5-25,13.5
		c8.4-6.3,18.2-11.3,24.2-20.2c2.3-3.4,5.2-7.1,5-11.3c-1.3-2.2-4.2-2-6.4-1.5c-3.3,0.9-6.1,3.2-8.8,5.2
		C228.2,82.4,227.5,79.5,229.4,77.7z"/>
	<path d="M105.4,84.9c-0.3-3.3,0.9-6.7,3-9.2c-1,3-2.9,6.1-1.4,9.4c0.6-0.5,1.6-1.3,2.2-1.8c-0.4,1.3-0.9,2.5-1.4,3.7
		C106.7,86.7,105.1,86.5,105.4,84.9z"/>
	<path d="M78.9,82c-0.6-1.6-0.6-3.2,0-4.8c1.6,0.8,2.5,2.6,0.5,3.5c1.1,1.6,1.2,3.5,1.4,5.3c-1.5-1.4-3.7-2.3-4.4-4.3
		C77,81.8,78.3,81.9,78.9,82z"/>
	<path d="M198.4,82.5c2.7-0.3,2.7,3.4,0.5,4.2C197.2,85.8,196.2,83.4,198.4,82.5z"/>
	<path d="M249.7,82.6c0.6-0.2,1.2-0.2,1.8-0.1c-0.9,3.3-0.8,8-4.4,9.7C248.2,89,250.1,86,249.7,82.6z"/>
	<path d="M65.5,86.3c0.1-1.7,1-2.7,2.6-3c0.4,0.9,0.9,1.9,1.4,2.8c-0.9,0.4-1.7,0.8-2.5,1.3C66.6,87.2,65.9,86.6,65.5,86.3z"/>
	<path d="M235.8,84.9c1.4-2.2,3-0.2,3.9,1.2C238.5,88.3,234.7,87.7,235.8,84.9z"/>
	<path d="M176,86.9c2.8-0.6,5.7-1.4,8.4-2.3c1.8,4.7-1,10-5,12.5c-3.5,2.3-7.4,5.2-7.3,9.8c-0.5,2.7,1.3,7.8,4.8,6.2
		c3.4-4.3,3.3-11,8.2-14.2c0.8-0.1,2.2-0.3,3-0.3c1.6,2.3,2.4,5.2,4.8,6.8c3.5,0.9,7.4-0.8,9.3-3.7c-2.8-0.2-6.2-0.6-7.9-3.2
		c-1.9-2-0.4-6.1,2.5-6.1c2.8-0.4,7.2,0.8,5.8,4.5c-2.7-1-5.4-1.9-8.3-1.3c1.6,3.3,5.9,3.7,9,2.7c4.1-2.4,6.9-6.5,10.9-9
		c2,1.6,1.6,4.2,1.5,6.5c-5.5,0.8-8.2,6-11.3,9.9c-3.2,3.6-7.7,7.7-13,5.8c-3.2-1.1-3.1-5.3-5.5-6.8c-0.6,0.3-1.7,1-2.2,1.3
		l-0.8-0.4c0.1,1.2,0.3,2.4,0.6,3.6l1.4-1.7c3.3,1.2,1.5,5.1-1.4,3.9c0.7-0.8-1-3-1.6-1.7c-1.3,2.5-1.9,5.4-3.9,7.5
		c-1.8,1.3-4.3,0-5.4-1.6c-2.9-4.5-3.1-11.1,0.6-15.3c2.8-3.3,7-5,9.7-8.4c-2.6,0.7-5.2,1.4-7.9,1.5C175.3,91.2,175.7,89.1,176,86.9
		z"/>
	<path d="M205.7,86.6c1.5-0.3,3-0.3,3.7,1.3c-0.3,0.5-1,1.5-1.3,2c-0.6-0.2-1.9-0.5-2.5-0.7C205.6,88.4,205.6,87.5,205.7,86.6z"/>
	<path d="M160.6,94.1c0.7-1.6,1.8-3.1,3.7-2.6c0.1,1.1,0.2,2.1,0.4,3.2C163.3,94.9,161.9,94.5,160.6,94.1z"/>
	<path d="M60.2,94.7c-0.1-2.2,1.7-2.8,3.6-2.5c0,1.1-0.2,2.2-0.4,3.3C62.3,95.9,61.3,95.2,60.2,94.7z"/>
	<path d="M230.5,92.6c1.9-0.6,4.4,0.5,3,2.8C231.4,97.4,229.8,94.5,230.5,92.6z"/>
	<path d="M95.4,96c0.5-2.2,4.1-2.6,4-0.1C99.4,98.4,96.2,97.9,95.4,96z"/>
	<path d="M51.4,95.4c1.5-0.6,1.9,1.1,2.6,2l-2.1-0.3c0.7,2.1,1.9,4.2,1.6,6.5c-1.3-0.8-2-2.4-3.5-3c-1.8-1,1.6-2.9,2-0.3
		C51.3,98.8,51.1,97.1,51.4,95.4z"/>
	<path d="M88.3,98c1,0.7,1.9,1.5,2.8,2.4l-2.2,0c0.5,2.1,2.4,4.5,1,6.6c-0.6-1.6-1.6-2.8-3.4-2.9c0-0.5,0-1.4,0-1.9
		c0.7,0.3,2,1,2.6,1.4C88.2,101.8,87.9,99.9,88.3,98z"/>
	<path d="M57.2,102.1c-0.4-2.2,3.5-2,3.4,0c0.5,1.3-1.3,1.7-1.9,2.6C58.2,103.8,56.9,103.3,57.2,102.1z"/>
	<path d="M155.5,100.6c1.3-0.5,2.3,0.5,3.2,1.3c-0.6,0.9-1.2,1.7-1.8,2.6c-0.8-0.4-1.6-0.9-2.5-1.3
		C154.7,102.3,154.9,101.4,155.5,100.6z"/>
	<path d="M32.4,101.5c1.7-1.4,3.8,1.7,2.2,3c-1.1,0.1-2.2,0-3.3-0.1C31.7,103.5,31.3,102,32.4,101.5z"/>
	<path d="M44.1,104c0.2-1.6,1.3-3.1,2.9-2.1c2,1.1,0.1,2.7-0.8,3.8C45.5,105.1,44.8,104.6,44.1,104z"/>
	<path d="M93.1,101.2c1.2,0.1,3.3-0.6,3.5,1.2c-0.1,0.8-0.4,1.4-0.9,2.1c-0.6,0-1.7-0.1-2.3-0.2C93.3,103.3,93.2,102.2,93.1,101.2z"
		/>
	<path d="M72.8,109.8c0.5-2.4,1.5-4.6,2.8-6.7c-0.4,2-1,4-0.9,6.1c0.8,0,2.5,0,3.3,0c-1,1.4-2.2,2.8-4.1,2.7
		C73.5,111.2,73.1,110.5,72.8,109.8z"/>
	<path d="M79.6,105.3c1-0.9,2-1.8,3.2-2.4c0.7,2.1,0.1,4.2-1.5,5.6c0.2-0.8,0.6-2.4,0.8-3.2C81.4,105.4,80.2,105.3,79.6,105.3z"/>
	<path d="M174,106.5c0.8-1,1.6-3,3.2-2.1c0.1,0.5,0.3,1.6,0.4,2.2c-0.7,0.8-1.4,1.7-2.2,2.5c0.2-0.7,0.7-2.2,1-3L174,106.5z"/>
	<path d="M25.5,109c0.8-1.5,3-2.5,3.9-0.5C30,111.3,26.1,111.6,25.5,109z"/>
	<path d="M38.8,111.8c-1.4-1.4-1.7-3.3,0.2-4.4C41.6,108.2,41.6,111.3,38.8,111.8z"/>
	<path d="M51.5,107.7c3-0.2,2,4.9-0.5,3.5C48.8,110.8,49.8,108,51.5,107.7z"/>
	<path d="M88.1,112.6c-2.4-1-1.8-5,1.1-3.9C91.2,110.1,89.6,111.8,88.1,112.6z"/>
	<path d="M164.2,109.9c0.8-1,1.7-1.8,2.8-2.6c0.4,1,2.2,2.3,1,3.5C167,112.4,165.1,110.9,164.2,109.9z"/>
	<path d="M253.5,109.8c1.6-0.5,2.2,0.1,1.7,1.8C253.5,112.1,253,111.6,253.5,109.8z"/>
</g>
</svg>
