<svg width="311" height="325" viewBox="0 0 311 325" fill="none" xmlns="http://www.w3.org/2000/svg">
<path fill-rule="evenodd" clip-rule="evenodd" d="M255.075 43.5728L208.442 16.6493C175.646 -2.28579 135.239 -2.28579 102.442 16.6493L55.8094 43.5728C23.0129 62.5079 2.80945 97.5014 2.80945 135.372V189.219C2.80945 227.089 23.0129 262.082 55.8094 281.017L102.442 307.941C135.239 326.876 175.646 326.876 208.442 307.941L255.075 281.017C287.872 262.082 308.075 227.089 308.075 189.219V135.371C308.075 97.5013 287.872 62.5079 255.075 43.5728ZM209.442 14.9172C176.027 -4.3751 134.858 -4.37511 101.442 14.9172L54.8094 41.8408C21.3941 61.1331 0.809448 96.7868 0.809448 135.372V189.219C0.809448 227.803 21.3941 263.457 54.8094 282.749L101.442 309.673C134.858 328.965 176.027 328.965 209.442 309.673L256.075 282.749C289.491 263.457 310.075 227.803 310.075 189.219V135.371C310.075 96.7868 289.491 61.1331 256.075 41.8408L209.442 14.9172Z" fill="#FE8360"/>
<path d="M85.6233 41.3648C128.827 16.4209 182.057 16.4209 225.261 41.3649V41.3649C268.466 66.3088 295.08 112.407 295.08 162.295V162.295C295.08 212.183 268.466 258.281 225.261 283.225V283.225C182.057 308.169 128.827 308.169 85.6233 283.225V283.225C42.4191 258.281 15.8042 212.183 15.8042 162.295V162.295C15.8042 112.407 42.4191 66.3088 85.6233 41.3648V41.3648Z" fill="#F9FAFB"/>
<g opacity="0.3">
<path fill-rule="evenodd" clip-rule="evenodd" d="M137.442 158.511C137.442 148.57 145.501 140.511 155.442 140.511C165.384 140.511 173.442 148.57 173.442 158.511V181.011C173.442 190.953 165.384 199.011 155.442 199.011C145.501 199.011 137.442 190.953 137.442 181.011V158.511ZM155.442 149.511C150.472 149.511 146.442 153.541 146.442 158.511V181.011C146.442 185.982 150.472 190.011 155.442 190.011C160.413 190.011 164.442 185.982 164.442 181.011V158.511C164.442 153.541 160.413 149.511 155.442 149.511Z" fill="#2D254C"/>
<path fill-rule="evenodd" clip-rule="evenodd" d="M186.942 176.511C189.428 176.511 191.442 178.526 191.442 181.011C191.442 190.559 187.65 199.716 180.898 206.467C174.147 213.219 164.99 217.011 155.442 217.011C145.895 217.011 136.738 213.219 129.987 206.467C123.235 199.716 119.442 190.559 119.442 181.011C119.442 178.526 121.457 176.511 123.942 176.511C126.428 176.511 128.442 178.526 128.442 181.011C128.442 188.172 131.287 195.04 136.351 200.103C141.414 205.167 148.282 208.011 155.442 208.011C162.603 208.011 169.471 205.167 174.534 200.103C179.598 195.04 182.442 188.172 182.442 181.011C182.442 178.526 184.457 176.511 186.942 176.511Z" fill="#2D254C"/>
<path fill-rule="evenodd" clip-rule="evenodd" d="M155.442 212.511C157.928 212.511 159.942 214.526 159.942 217.011V226.011C159.942 228.497 157.928 230.511 155.442 230.511C152.957 230.511 150.942 228.497 150.942 226.011V217.011C150.942 214.526 152.957 212.511 155.442 212.511Z" fill="#2D254C"/>
</g>
<g opacity="0.3">
<path fill-rule="evenodd" clip-rule="evenodd" d="M132.292 129.905C130.149 127.762 130.149 124.289 132.292 122.147C138.432 116.006 146.751 112.541 155.435 112.507C164.12 112.473 172.465 115.872 178.654 121.964C180.814 124.09 180.841 127.563 178.716 129.722C176.59 131.881 173.117 131.908 170.958 129.783C166.832 125.722 161.268 123.455 155.479 123.478C149.689 123.501 144.143 125.811 140.049 129.905C137.907 132.047 134.434 132.047 132.292 129.905Z" fill="#2D254C"/>
<path fill-rule="evenodd" clip-rule="evenodd" d="M120.655 107.297C118.513 105.154 118.513 101.681 120.655 99.5389C129.866 90.3278 142.344 85.1303 155.371 85.079C168.397 85.0277 180.916 90.1267 190.199 99.2649C192.358 101.39 192.386 104.863 190.26 107.023C188.135 109.182 184.662 109.209 182.503 107.084C175.282 99.9761 165.545 96.0102 155.414 96.0501C145.282 96.09 135.577 100.133 128.413 107.297C126.27 109.439 122.797 109.439 120.655 107.297Z" fill="#2D254C"/>
</g>
</svg>
