<svg width="25" height="25" viewBox="0 0 25 25" fill="none" xmlns="http://www.w3.org/2000/svg">
<path d="M3.65838 14.7803C2.94537 13.592 2.94537 12.1074 3.65838 10.9191V10.9191C3.87596 10.5564 4.23641 10.3024 4.6511 10.2195L6.34413 9.88088C6.44499 9.8607 6.53591 9.80661 6.60176 9.72758L8.67085 7.24468C9.8534 5.82562 10.4447 5.11608 10.9723 5.30712C11.5 5.49816 11.5 6.42177 11.5 8.26898L11.5 17.4304C11.5 19.2776 11.5 20.2012 10.9723 20.3923C10.4447 20.5833 9.8534 19.8738 8.67085 18.4547L6.60176 15.9718C6.53591 15.8928 6.44499 15.8387 6.34413 15.8185L4.6511 15.4799C4.23641 15.397 3.87596 15.143 3.65838 14.7803V14.7803Z" stroke="#2D254C" stroke-width="2"/>
<path d="M16.0355 9.31417C16.9684 10.247 17.4948 11.5108 17.5 12.83C17.5052 14.1493 16.9888 15.4171 16.0633 16.3573" stroke="#2D254C" stroke-width="2" stroke-linecap="round"/>
<path d="M20.1569 7.19285C21.6494 8.68542 22.4916 10.7074 22.4999 12.8182C22.5083 14.929 21.682 16.9575 20.2012 18.4618" stroke="#2D254C" stroke-width="2" stroke-linecap="round"/>
</svg>
