<svg width="24" height="25" viewBox="0 0 24 25" fill="none" xmlns="http://www.w3.org/2000/svg">
<path fill-rule="evenodd" clip-rule="evenodd" d="M2.30092 15.2377C1.3979 13.7387 1.3979 11.8659 2.30092 10.3668C2.66345 9.76498 3.26406 9.3434 3.95501 9.20575L5.45779 8.90638L7.45049 6.52459C8.00075 5.86679 8.48001 5.29386 8.89213 4.91824C9.26403 4.57927 9.95763 4.04457 10.8128 4.35296C11.668 4.66135 11.8571 5.5144 11.925 6.01194C12.0002 6.5633 12.0001 7.30904 12 8.16525L12 17.3649C12 17.3898 12 17.4146 12 17.4393C12.0001 18.2955 12.0002 19.0413 11.925 19.5926C11.8571 20.0902 11.668 20.9432 10.8128 21.2516C9.95763 21.56 9.26403 21.0253 8.89213 20.6863C8.48001 20.3107 8.00074 19.7378 7.45048 19.08C7.4346 19.061 7.41866 19.0419 7.40266 19.0228L5.45779 16.6982L3.95501 16.3988C3.26406 16.2612 2.66345 15.8396 2.30092 15.2377ZM4.0159 11.3917C3.49291 12.26 3.49291 13.3446 4.0159 14.2128C4.08853 14.3334 4.20884 14.4178 4.34725 14.4454L6.04028 14.7827C6.36512 14.8474 6.65794 15.0209 6.87002 15.2744L8.9391 17.7475C9.38586 18.2815 9.71526 18.6733 9.97694 18.9521C9.99881 18.571 10 18.06 10 17.3649L10 8.23966C10 7.54456 9.99881 7.03351 9.97694 6.6525C9.71526 6.93125 9.38586 7.32307 8.9391 7.85707L6.87002 10.3302C6.65794 10.5836 6.36512 10.7572 6.04028 10.8219L4.34725 11.1592C4.20884 11.1867 4.08853 11.2712 4.0159 11.3917ZM10.4497 6.22668C10.4496 6.22717 10.4447 6.23008 10.4355 6.23393C10.4453 6.22812 10.4499 6.22619 10.4497 6.22668ZM9.89371 6.03855C9.88911 6.02973 9.88722 6.02438 9.88743 6.02391C9.88763 6.02344 9.88993 6.02785 9.89371 6.03855ZM9.88743 19.5806C9.88723 19.5802 9.88911 19.5748 9.89371 19.566C9.88993 19.5767 9.88764 19.5811 9.88743 19.5806ZM10.4355 19.3706C10.4447 19.3745 10.4496 19.3774 10.4497 19.3779C10.4499 19.3784 10.4453 19.3764 10.4355 19.3706Z" fill="#2D254C"/>
<path fill-rule="evenodd" clip-rule="evenodd" d="M21.707 9.10979C22.0975 9.49877 22.0975 10.1294 21.707 10.5184L15.707 16.4947C15.3165 16.8837 14.6833 16.8837 14.2928 16.4947C13.9022 16.1057 13.9022 15.4751 14.2928 15.0861L20.2928 9.10979C20.6833 8.72081 21.3165 8.72081 21.707 9.10979Z" fill="#2D254C"/>
<path fill-rule="evenodd" clip-rule="evenodd" d="M14.293 9.10979C13.9025 9.49877 13.9025 10.1294 14.293 10.5184L20.293 16.4947C20.6835 16.8837 21.3167 16.8837 21.7072 16.4947C22.0978 16.1057 22.0978 15.4751 21.7072 15.0861L15.7072 9.10979C15.3167 8.72081 14.6835 8.72081 14.293 9.10979Z" fill="#2D254C"/>
</svg>
