<svg width="375" height="812" viewBox="0 0 375 812" fill="none" xmlns="http://www.w3.org/2000/svg">
<g clip-path="url(#clip0_127_171)">
<rect width="375" height="812" fill="#07617C"/>
<path d="M79.7514 565.616C146.426 527.121 228.573 527.121 295.249 565.616C361.924 604.111 402.997 675.252 402.997 752.242C402.997 829.232 361.924 900.373 295.249 938.868C228.573 977.363 146.426 977.363 79.7514 938.868C13.0764 900.373 -27.9972 829.232 -27.9972 752.242C-27.9972 675.252 13.0764 604.111 79.7514 565.616Z" fill="#C88319"/>
<path d="M80.2514 536.482C146.617 498.166 228.383 498.166 294.749 536.482C361.114 574.798 401.997 645.61 401.997 722.242C401.997 798.875 361.114 869.686 294.749 908.002C228.383 946.318 146.617 946.318 80.2514 908.002C13.8858 869.686 -26.9972 798.875 -26.9972 722.242C-26.9972 645.61 13.8858 574.798 80.2514 536.482Z" stroke="white" stroke-width="2"/>
<path d="M79.7514 585.616C146.426 547.121 228.573 547.121 295.249 585.616C361.924 624.111 402.997 695.252 402.997 772.242C402.997 849.232 361.924 920.373 295.249 958.868C228.573 997.363 146.426 997.363 79.7514 958.868C13.0764 920.373 -27.9972 849.232 -27.9972 772.242C-27.9972 695.252 13.0764 624.111 79.7514 585.616Z" fill="white"/>
</g>
<defs>
<clipPath id="clip0_127_171">
<rect width="375" height="812" fill="white"/>
</clipPath>
</defs>
</svg>
