<svg width="375" height="812" viewBox="0 0 375 812" fill="none" xmlns="http://www.w3.org/2000/svg">
<g clip-path="url(#clip0)">
<rect width="375" height="812" fill="#2D254C"/>
<path d="M-26.9972 752.242C-26.9972 675.61 13.8858 604.798 80.2514 566.482C146.617 528.166 228.383 528.166 294.749 566.482C361.114 604.798 401.997 675.61 401.997 752.242C401.997 828.875 361.114 899.686 294.749 938.002C228.383 976.318 146.617 976.318 80.2514 938.002C13.8858 899.686 -26.9972 828.875 -26.9972 752.242Z" fill="#FE8360" stroke="#FE8360" stroke-width="2"/>
<path d="M-26.9972 722.242C-26.9972 645.61 13.8858 574.798 80.2514 536.482C146.617 498.166 228.383 498.166 294.749 536.482C361.114 574.798 401.997 645.61 401.997 722.242C401.997 798.875 361.114 869.686 294.749 908.002C228.383 946.318 146.617 946.318 80.2514 908.002C13.8858 869.686 -26.9972 798.875 -26.9972 722.242Z" stroke="white" stroke-width="2"/>
<path d="M79.7514 585.616C146.426 547.121 228.574 547.121 295.249 585.616V585.616C361.924 624.111 402.997 695.252 402.997 772.242V772.242C402.997 849.232 361.924 920.373 295.249 958.868V958.868C228.574 997.363 146.426 997.363 79.7514 958.868V958.868C13.0764 920.373 -27.9972 849.232 -27.9972 772.242V772.242C-27.9972 695.252 13.0764 624.111 79.7514 585.616V585.616Z" fill="white"/>
</g>
<defs>
<clipPath id="clip0">
<rect width="375" height="812" fill="white"/>
</clipPath>
</defs>
</svg>
